Coordinates
version=1
nRows=10
nColumns=34
inDegrees=yes

Units are S.I. units (second, meters, Newtons, ...)
If the header above contains a line with 'inDegrees', this indicates whether rotational values are in degrees (yes) or radians (no).

endheader
time	pelvis_tilt	pelvis_list	pelvis_rotation	pelvis_tx	pelvis_ty	pelvis_tz	hip_flexion_r	hip_adduction_r	hip_rotation_r	knee_angle_r	ankle_angle_r	subtalar_angle_r	mtp_angle_r	hip_flexion_l	hip_adduction_l	hip_rotation_l	knee_angle_l	ankle_angle_l	subtalar_angle_l	mtp_angle_l	lumbar_extension	lumbar_bending	lumbar_rotation	arm_flex_r	arm_add_r	arm_rot_r	elbow_flex_r	pro_sup_r	arm_flex_l	arm_add_l	arm_rot_l	elbow_flex_l	pro_sup_l
     17.06666670	     -1.88594812	     14.59270717	   -118.70535380	     -0.13736656	      1.09619661	      0.03866418	     68.44109010	    -50.00000023	    -39.99999995	     86.43342759	     10.66587467	    -35.00000000	      0.00000000	     22.80203410	     28.83642186	     39.99999995	      6.73652440	    -50.00000000	      0.31760561	      0.00000000	     30.30246715	     -8.82793400	     90.00000018	     36.44229663	      0.04246595	     76.69092362	     25.29942790	     37.95670840	    -38.50421687	     10.66710746	    -39.57547083	     41.61932484	     46.93133420
     17.08333330	     28.74800019	     32.86874710	   -199.53348449	     -0.15218947	      1.11487030	     -0.00913014	     99.45123151	     15.08238346	    -39.99999995	     91.53514255	     25.11555743	    -35.00000000	      0.00000000	     56.86856690	    -20.11279820	     -4.91796333	      9.95525784	    -50.00000000	     -1.53469055	      0.00000000	     90.00000018	     51.26968300	     90.00000018	     33.46386843	     19.50291730	     79.44168896	     29.67063509	     38.95097334	    -53.72833485	     15.81849626	    -67.18324709	     53.81621416	     38.60197388
     17.10000000	     35.97177993	     43.50114366	   -236.29353117	     -0.12154423	      1.13974860	      0.01937032	     59.09119635	     16.14449694	    -29.32448719	    111.92036923	     50.00000000	     35.00000000	      0.00000000	     48.51403709	    -50.00000023	    -19.59536736	     14.93377966	    -49.64580552	     -7.18291200	      0.00000000	     90.00000018	     90.00000018	     90.00000018	     27.90449085	     23.92135668	     76.75316445	     24.86882841	     40.62394260	    -64.65197471	      6.19273590	    -53.18864405	     53.37230459	     30.65048922
     17.11666670	     31.81329495	     64.89450819	   -222.88188557	     -0.15733575	      1.13422232	      0.06503303	      4.98841863	      6.66720964	    -22.55678530	     83.47765870	     50.00000000	     35.00000000	      0.00000000	     49.36687662	    -50.00000023	     -3.46735034	     12.12738260	    -41.43956105	     -6.90872618	      0.00000000	     90.00000018	     90.00000018	     90.00000018	     27.03513665	     26.76017928	     71.32337790	      2.33475197	     38.26503132	    -66.36375714	    -17.65348122	    -33.35592325	     61.49013909	     29.48878308
     17.13333330	     25.35898390	     68.22906828	   -214.59875051	     -0.17619277	      1.14117459	      0.06438780	    -14.78796822	     13.82601702	     -8.97237280	     63.99502571	     50.00000000	     35.00000000	      0.00000000	     52.47847622	    -50.00000023	      4.09462975	     11.15723439	    -34.16075324	     -6.43686363	      0.00000000	     90.00000018	     90.00000018	     90.00000018	     28.22117738	     23.94665768	     68.45467019	      2.14680478	     38.25750565	    -64.63371215	    -22.69717232	    -30.26775810	     66.96844312	     28.02273007
     17.15000000	     29.67492151	     58.53045020	   -219.44932269	     -0.17672635	      1.14221577	      0.03040632	    -17.94237033	     16.82102604	    -13.72463389	     55.93825922	     50.00000000	     35.00000000	      0.00000000	     57.06828344	    -50.00000023	      6.87500027	     18.20429778	    -27.99585492	     -7.75372486	      0.00000000	     90.00000018	     90.00000018	     90.00000018	     29.73057191	     19.95358209	     70.05398314	     14.13942606	     39.25276943	    -68.67674989	     -8.20786736	    -42.24893438	     76.95557584	     27.49396595
     17.16666670	     29.80026270	     11.93786949	   -243.84105585	     -0.12555300	      1.13619415	     -0.03795743	     33.90401203	    -39.54999444	    -39.99999995	    104.03014887	    -50.00000000	     35.00000000	      0.00000000	     50.31925066	    -50.00000023	    -30.39842087	     46.24579381	     -9.15458550	    -28.17897916	      0.00000000	     90.00000018	     90.00000018	     90.00000018	     42.16436934	     31.64170264	     92.89585081	     33.72490274	     40.90100721	    -54.42436044	     28.94614466	    -80.85649287	     52.37294911	     23.42583511
     17.18333330	     33.66351612	      1.74533324	   -236.61357026	     -0.10035551	      1.13451020	     -0.03065825	     51.22097945	    -44.74383044	    -39.99999995	    118.75177783	    -50.00000000	     35.00000000	      0.00000000	     67.15195254	    -50.00000023	    -39.99999995	     93.33632896	     50.00000000	      6.54122591	      0.00000000	     90.00000018	     90.00000018	     90.00000018	     36.25378810	     35.35210545	    102.04132068	     28.80915459	     36.23340434	    -53.31342017	     36.05531671	    -92.60703633	     50.74915484	     20.25970557
     17.20000000	     58.32613999	     -1.86176797	   -225.46847823	     -0.03365732	      1.10453883	     -0.01479417	     87.29046162	    -22.73304519	    -39.99999995	    117.77558357	    -21.01538358	     35.00000000	      0.00000000	    102.28260948	    -50.00000023	    -39.99999995	    106.14477276	     50.00000000	     22.54736592	      0.00000000	     90.00000018	     90.00000018	     90.00000018	     27.27750614	     37.15404119	    137.21420256	     26.24869703	      0.00000000	    -58.51232330	     51.02121191	    -93.89980922	     49.82970644	     25.02156553
     17.21666670	     73.24152630	     50.64071509	   -219.10513788	      0.04255722	      1.19039244	     -0.04462606	    103.13703773	     30.00000025	    -39.99999995	     74.71326018	     -4.66387222	    -18.54150553	      0.00000000	    119.99999986	    -50.00000023	    -39.99999995	     68.59040227	    -27.25028731	     20.90597864	      0.00000000	     90.00000018	     90.00000018	     90.00000018	      9.87660352	     10.98483956	    138.74525102	     21.07845532	      0.00000000	    -76.87689385	     18.64537919	    -47.91433652	     45.90565740	     35.97810365
